<?xml version="1.0" encoding="UTF-8"?>
<svg width="23px" height="20px" viewBox="0 0 23 20" version="1.1" xmlns="http://www.w3.org/2000/svg" xmlns:xlink="http://www.w3.org/1999/xlink">
    <!-- Generator: Sketch 52.4 (67378) - http://www.bohemiancoding.com/sketch -->
    <title>twitter_icon</title>
    <desc>Created with Sketch.</desc>
    <g id="Page-1" stroke="none" stroke-width="1" fill="none" fill-rule="evenodd">
        <path d="M10.7196598,6.77037498 C8.7440786,1.48669258 15.664201,-0.862618367 18.2833844,2.7086055 C18.2833844,2.7086055 19.2987054,2.67219086 21.1516439,1.67442982 C21.1516439,1.67442982 20.709813,3.08529468 19.2844632,4.01896596 C19.5695494,3.78504221 20.3676773,4.0119258 21.6790088,3.42759227 C21.6790088,3.42759227 20.8523156,4.76740813 19.5695494,5.66531214 C19.5695494,5.66531214 19.541065,7.67499547 19.2417367,8.9292774 C18.9424084,10.1835593 18.4415805,13.7212596 15.4484592,16.1727738 C12.4553379,18.624369 8.30957729,19.1202776 6.24284436,18.977694 C4.17619236,18.8351914 1.63914417,18.0513057 0,17.0393025 C0,17.0393025 3.74860361,17.4384069 6.51368834,15.1578796 C6.51368834,15.1578796 3.72011927,15.28614 2.39454558,12.0649822 C2.39454558,12.0649822 3.34949919,12.2359692 4.37574457,11.9509639 C4.37574457,11.9509639 0.855177509,11.3095808 0.812451002,7.51825069 C0.812451002,7.51825069 1.96695682,8.08834206 2.82213433,8.03137338 C2.82213433,8.03137338 -0.541607027,5.46575993 1.51088373,2.144826 C1.51088373,2.144826 4.87721457,6.60691372 10.7196598,6.77037498 Z" id="twitter_icon" stroke="#FFFFFF" fill-rule="nonzero"></path>
    </g>
</svg>